<svg xmlns="http://www.w3.org/2000/svg" version="1.1" xmlns:xlink="http://www.w3.org/1999/xlink" xmlns:svgjs="http://svgjs.dev/svgjs" viewBox="0 0 800 800"><defs><linearGradient x1="50%" y1="0%" x2="50%" y2="100%" id="cccoil-grad"><stop stop-color="hsl(205, 69%, 60%)" stop-opacity="1" offset="0%"></stop><stop stop-color="hsl(167, 72%, 60%)" stop-opacity="1" offset="100%"></stop></linearGradient></defs><g stroke="url(#cccoil-grad)" fill="none" stroke-linecap="round"><circle r="310" cx="400" cy="400" stroke-width="13" stroke-dasharray="1578 1948" transform="rotate(360, 400, 400)" opacity="0.77"></circle><circle r="294.5" cx="400" cy="400" stroke-width="13" stroke-dasharray="1420 1850" transform="rotate(341, 400, 400)" opacity="0.59"></circle><circle r="279" cx="400" cy="400" stroke-width="13" stroke-dasharray="1270 1753" transform="rotate(322, 400, 400)" opacity="0.42"></circle><circle r="263.5" cx="400" cy="400" stroke-width="13" stroke-dasharray="1129 1656" transform="rotate(303, 400, 400)" opacity="0.88"></circle><circle r="248" cx="400" cy="400" stroke-width="13" stroke-dasharray="996 1558" transform="rotate(284, 400, 400)" opacity="0.78"></circle><circle r="232.5" cx="400" cy="400" stroke-width="13" stroke-dasharray="872 1461" transform="rotate(265, 400, 400)" opacity="0.51"></circle><circle r="217" cx="400" cy="400" stroke-width="13" stroke-dasharray="756 1363" transform="rotate(246, 400, 400)" opacity="0.59"></circle><circle r="201.5" cx="400" cy="400" stroke-width="13" stroke-dasharray="648 1266" transform="rotate(227, 400, 400)" opacity="0.80"></circle><circle r="186" cx="400" cy="400" stroke-width="13" stroke-dasharray="548 1169" transform="rotate(208, 400, 400)" opacity="0.30"></circle><circle r="170.5" cx="400" cy="400" stroke-width="13" stroke-dasharray="457 1071" transform="rotate(189, 400, 400)" opacity="0.18"></circle><circle r="155" cx="400" cy="400" stroke-width="13" stroke-dasharray="374 974" transform="rotate(171, 400, 400)" opacity="0.66"></circle><circle r="139.5" cx="400" cy="400" stroke-width="13" stroke-dasharray="299 877" transform="rotate(152, 400, 400)" opacity="0.20"></circle><circle r="124" cx="400" cy="400" stroke-width="13" stroke-dasharray="233 779" transform="rotate(133, 400, 400)" opacity="0.24"></circle><circle r="108.5" cx="400" cy="400" stroke-width="13" stroke-dasharray="174 682" transform="rotate(114, 400, 400)" opacity="0.67"></circle><circle r="93" cx="400" cy="400" stroke-width="13" stroke-dasharray="125 584" transform="rotate(95, 400, 400)" opacity="0.33"></circle><circle r="77.5" cx="400" cy="400" stroke-width="13" stroke-dasharray="83 487" transform="rotate(76, 400, 400)" opacity="0.26"></circle><circle r="62" cx="400" cy="400" stroke-width="13" stroke-dasharray="50 390" transform="rotate(57, 400, 400)" opacity="0.62"></circle><circle r="46.5" cx="400" cy="400" stroke-width="13" stroke-dasharray="25 292" transform="rotate(38, 400, 400)" opacity="0.30"></circle><circle r="31" cx="400" cy="400" stroke-width="13" stroke-dasharray="8 195" transform="rotate(19, 400, 400)" opacity="0.92"></circle><circle r="15.5" cx="400" cy="400" stroke-width="13" stroke-dasharray="0 97" opacity="0.31"></circle></g></svg>